<svg width="237" height="61" viewBox="0 0 237 61" fill="none" xmlns="http://www.w3.org/2000/svg">
<path d="M236 0L231.276 3.31852L236.512 5.75078L236 0ZM1 59.9999C1.46735 60.1776 1.46717 60.1781 1.46704 60.1784C1.46707 60.1784 1.46699 60.1786 1.46705 60.1784C1.46715 60.1782 1.46747 60.1773 1.46799 60.176C1.46904 60.1733 1.47094 60.1685 1.47372 60.1617C1.47928 60.1479 1.48836 60.1259 1.50126 60.0958C1.52706 60.0357 1.56809 59.9437 1.62661 59.8224C1.74365 59.5797 1.93064 59.2199 2.20554 58.7639C2.75526 57.8522 3.65695 56.5554 5.05476 55.0424C7.84907 52.0177 12.6342 48.1203 20.5724 44.7093C36.454 37.8852 64.974 33.0021 115.422 40.9938L115.578 40.0062C65.026 31.9979 36.296 36.8647 20.1776 43.7906C12.1158 47.2546 7.21343 51.2321 4.32024 54.3638C2.8743 55.9289 1.93224 57.2805 1.34915 58.2476C1.05764 58.7311 0.855957 59.1183 0.725924 59.3879C0.66091 59.5227 0.613811 59.6281 0.582356 59.7013C0.566629 59.738 0.554813 59.7666 0.546624 59.7868C0.542529 59.797 0.539341 59.805 0.537024 59.8109C0.535866 59.8139 0.534925 59.8163 0.534198 59.8182C0.533835 59.8191 0.533447 59.8201 0.533267 59.8206C0.532933 59.8215 0.532652 59.8222 1 59.9999ZM115.422 40.9938C157.621 47.6789 185.677 41.7397 204.058 32.4947C222.438 23.2502 231.097 10.7239 234.545 4.31609L233.665 3.8422C230.29 10.1125 221.766 22.4689 203.608 31.6014C185.452 40.7335 157.616 46.6656 115.578 40.0062L115.422 40.9938Z" fill="black"/>
</svg>
