<svg width="35" height="35" viewBox="0 0 35 35" fill="none" xmlns="http://www.w3.org/2000/svg">
<path d="M23.2791 11.6394V6.54811C23.2791 5.338 23.2791 4.73295 23.0242 4.36111C22.8015 4.03624 22.4566 3.81555 22.0683 3.74948C21.6239 3.67385 21.0745 3.9274 19.9758 4.43451L7.06994 10.391C6.09004 10.8433 5.6001 11.0694 5.24125 11.4201C4.92401 11.7302 4.68185 12.1086 4.53328 12.5266C4.36523 12.9994 4.36523 13.539 4.36523 14.6183V21.8238M24.0066 21.0963H24.0211M4.36523 16.2951L4.36523 25.8975C4.36523 27.5272 4.36523 28.342 4.68239 28.9645C4.96136 29.512 5.40651 29.9571 5.95403 30.2361C6.57648 30.5533 7.39131 30.5533 9.02096 30.5533H25.898C27.5276 30.5533 28.3425 30.5533 28.9649 30.2361C29.5124 29.9571 29.9576 29.512 30.2366 28.9645C30.5537 28.342 30.5537 27.5272 30.5537 25.8975V16.2951C30.5537 14.6654 30.5537 13.8506 30.2366 13.2282C29.9576 12.6806 29.5124 12.2355 28.9649 11.9565C28.3425 11.6394 27.5276 11.6394 25.898 11.6394L9.02096 11.6394C7.39131 11.6394 6.57648 11.6394 5.95403 11.9565C5.40651 12.2355 4.96136 12.6806 4.68239 13.2282C4.36523 13.8506 4.36523 14.6654 4.36523 16.2951ZM24.7341 21.0963C24.7341 21.4981 24.4084 21.8238 24.0066 21.8238C23.6048 21.8238 23.2791 21.4981 23.2791 21.0963C23.2791 20.6946 23.6048 20.3689 24.0066 20.3689C24.4084 20.3689 24.7341 20.6946 24.7341 21.0963Z" stroke="black" stroke-width="2" stroke-linecap="round" stroke-linejoin="round"/>
</svg>
