<svg width="20" height="21" viewBox="0 0 20 21" fill="none" xmlns="http://www.w3.org/2000/svg">
<path d="M16.6925 8.44205L10.4425 14.692C10.3845 14.7502 10.3156 14.7963 10.2397 14.8277C10.1638 14.8592 10.0825 14.8754 10.0003 14.8754C9.91821 14.8754 9.83688 14.8592 9.76101 14.8277C9.68514 14.7963 9.61621 14.7502 9.55816 14.692L3.30816 8.44205C3.19088 8.32477 3.125 8.16571 3.125 7.99986C3.125 7.83401 3.19088 7.67495 3.30816 7.55767C3.42544 7.4404 3.5845 7.37451 3.75035 7.37451C3.9162 7.37451 4.07526 7.4404 4.19253 7.55767L10.0003 13.3663L15.8082 7.55767C15.8662 7.4996 15.9352 7.45354 16.011 7.42211C16.0869 7.39069 16.1682 7.37451 16.2503 7.37451C16.3325 7.37451 16.4138 7.39069 16.4897 7.42211C16.5655 7.45354 16.6345 7.4996 16.6925 7.55767C16.7506 7.61574 16.7967 7.68468 16.8281 7.76055C16.8595 7.83642 16.8757 7.91774 16.8757 7.99986C16.8757 8.08198 16.8595 8.1633 16.8281 8.23917C16.7967 8.31504 16.7506 8.38398 16.6925 8.44205Z" fill="black"/>
</svg>
