<svg width="20" height="21" viewBox="0 0 20 21" fill="none" xmlns="http://www.w3.org/2000/svg">
<path d="M3.30746 12.558L9.55746 6.30795C9.61551 6.24984 9.68444 6.20374 9.76031 6.17229C9.83619 6.14084 9.91752 6.12465 9.99965 6.12465C10.0818 6.12465 10.1631 6.14084 10.239 6.17229C10.3149 6.20374 10.3838 6.24984 10.4418 6.30795L16.6918 12.558C16.8091 12.6752 16.875 12.8343 16.875 13.0001C16.875 13.166 16.8091 13.3251 16.6918 13.4423C16.5746 13.5596 16.4155 13.6255 16.2497 13.6255C16.0838 13.6255 15.9247 13.5596 15.8075 13.4423L9.99965 7.63373L4.19184 13.4423C4.13377 13.5004 4.06483 13.5465 3.98896 13.5779C3.91309 13.6093 3.83177 13.6255 3.74965 13.6255C3.66753 13.6255 3.58621 13.6093 3.51034 13.5779C3.43447 13.5465 3.36553 13.5004 3.30746 13.4423C3.2494 13.3843 3.20333 13.3153 3.17191 13.2395C3.14048 13.1636 3.1243 13.0823 3.1243 13.0001C3.1243 12.918 3.14048 12.8367 3.17191 12.7608C3.20333 12.685 3.2494 12.616 3.30746 12.558Z" fill="black"/>
</svg>
